<mxfile host="Electron" modified="2023-10-28T17:59:08.328Z" agent="Mozilla/5.0 (Windows NT 10.0; Win64; x64) AppleWebKit/537.36 (KHTML, like Gecko) draw.io/22.0.3 Chrome/114.0.5735.289 Electron/25.8.4 Safari/537.36" etag="4tPfOG0H545el97A3Cro" version="22.0.3" type="device">
  <diagram name="Page-1" id="GtEQMl1GCdys-5Ea4ixd">
    <mxGraphModel dx="1834" dy="1294" grid="0" gridSize="10" guides="1" tooltips="1" connect="1" arrows="1" fold="1" page="0" pageScale="1" pageWidth="827" pageHeight="1169" math="0" shadow="0">
      <root>
        <mxCell id="0" />
        <mxCell id="1" parent="0" />
        <mxCell id="A1Iu7sWvwkuZ2wNdgPM5-9" style="edgeStyle=none;curved=1;rounded=0;orthogonalLoop=1;jettySize=auto;html=1;exitX=1;exitY=1;exitDx=0;exitDy=0;entryX=0.5;entryY=0;entryDx=0;entryDy=0;fontSize=12;startSize=8;endSize=8;endArrow=none;endFill=0;fillColor=#b1ddf0;strokeColor=#10739e;" edge="1" parent="1" source="A1Iu7sWvwkuZ2wNdgPM5-3" target="A1Iu7sWvwkuZ2wNdgPM5-5">
          <mxGeometry relative="1" as="geometry" />
        </mxCell>
        <mxCell id="A1Iu7sWvwkuZ2wNdgPM5-39" style="edgeStyle=none;curved=1;rounded=0;orthogonalLoop=1;jettySize=auto;html=1;exitX=0.5;exitY=0;exitDx=0;exitDy=0;fontSize=12;startSize=8;endSize=8;endArrow=none;endFill=0;fillColor=#d0cee2;strokeColor=#56517e;strokeWidth=2;" edge="1" parent="1" source="A1Iu7sWvwkuZ2wNdgPM5-3" target="A1Iu7sWvwkuZ2wNdgPM5-13">
          <mxGeometry relative="1" as="geometry" />
        </mxCell>
        <mxCell id="A1Iu7sWvwkuZ2wNdgPM5-3" value="" style="ellipse;whiteSpace=wrap;html=1;aspect=fixed;fontSize=16;fillColor=#b1ddf0;strokeColor=#10739e;" vertex="1" parent="1">
          <mxGeometry x="3.5" y="438.5" width="20" height="20" as="geometry" />
        </mxCell>
        <mxCell id="A1Iu7sWvwkuZ2wNdgPM5-7" style="edgeStyle=none;curved=1;rounded=0;orthogonalLoop=1;jettySize=auto;html=1;entryX=0;entryY=0.5;entryDx=0;entryDy=0;fontSize=12;startSize=8;endSize=8;endArrow=none;endFill=0;fillColor=#b1ddf0;strokeColor=#10739e;" edge="1" parent="1" source="A1Iu7sWvwkuZ2wNdgPM5-4" target="A1Iu7sWvwkuZ2wNdgPM5-5">
          <mxGeometry relative="1" as="geometry" />
        </mxCell>
        <mxCell id="A1Iu7sWvwkuZ2wNdgPM5-8" style="edgeStyle=none;curved=1;rounded=0;orthogonalLoop=1;jettySize=auto;html=1;exitX=0.5;exitY=0;exitDx=0;exitDy=0;entryX=0;entryY=1;entryDx=0;entryDy=0;fontSize=12;startSize=8;endSize=8;endArrow=none;endFill=0;fillColor=#b1ddf0;strokeColor=#10739e;" edge="1" parent="1" source="A1Iu7sWvwkuZ2wNdgPM5-4" target="A1Iu7sWvwkuZ2wNdgPM5-3">
          <mxGeometry relative="1" as="geometry" />
        </mxCell>
        <mxCell id="A1Iu7sWvwkuZ2wNdgPM5-4" value="" style="ellipse;whiteSpace=wrap;html=1;aspect=fixed;fontSize=16;fillColor=#b1ddf0;strokeColor=#10739e;" vertex="1" parent="1">
          <mxGeometry x="-24.5" y="484.5" width="20" height="20" as="geometry" />
        </mxCell>
        <mxCell id="A1Iu7sWvwkuZ2wNdgPM5-38" style="edgeStyle=none;curved=1;rounded=0;orthogonalLoop=1;jettySize=auto;html=1;exitX=1;exitY=0;exitDx=0;exitDy=0;entryX=0;entryY=1;entryDx=0;entryDy=0;fontSize=12;startSize=8;endSize=8;endArrow=none;endFill=0;fillColor=#d0cee2;strokeColor=#56517e;strokeWidth=2;" edge="1" parent="1" source="A1Iu7sWvwkuZ2wNdgPM5-5" target="A1Iu7sWvwkuZ2wNdgPM5-10">
          <mxGeometry relative="1" as="geometry" />
        </mxCell>
        <mxCell id="A1Iu7sWvwkuZ2wNdgPM5-5" value="" style="ellipse;whiteSpace=wrap;html=1;aspect=fixed;fontSize=16;fillColor=#b1ddf0;strokeColor=#10739e;" vertex="1" parent="1">
          <mxGeometry x="31.5" y="484.5" width="20" height="20" as="geometry" />
        </mxCell>
        <mxCell id="A1Iu7sWvwkuZ2wNdgPM5-40" style="edgeStyle=none;curved=1;rounded=0;orthogonalLoop=1;jettySize=auto;html=1;exitX=0;exitY=0;exitDx=0;exitDy=0;entryX=1;entryY=1;entryDx=0;entryDy=0;fontSize=12;startSize=8;endSize=8;endArrow=none;endFill=0;fillColor=#d0cee2;strokeColor=#56517e;strokeWidth=2;" edge="1" parent="1" source="A1Iu7sWvwkuZ2wNdgPM5-10" target="A1Iu7sWvwkuZ2wNdgPM5-16">
          <mxGeometry relative="1" as="geometry" />
        </mxCell>
        <mxCell id="A1Iu7sWvwkuZ2wNdgPM5-41" style="edgeStyle=none;curved=1;rounded=0;orthogonalLoop=1;jettySize=auto;html=1;exitX=0;exitY=0.5;exitDx=0;exitDy=0;entryX=1;entryY=0.5;entryDx=0;entryDy=0;fontSize=12;startSize=8;endSize=8;endArrow=none;endFill=0;fillColor=#d0cee2;strokeColor=#56517e;strokeWidth=2;" edge="1" parent="1" source="A1Iu7sWvwkuZ2wNdgPM5-10" target="A1Iu7sWvwkuZ2wNdgPM5-27">
          <mxGeometry relative="1" as="geometry" />
        </mxCell>
        <mxCell id="A1Iu7sWvwkuZ2wNdgPM5-10" value="" style="ellipse;whiteSpace=wrap;html=1;aspect=fixed;fontSize=16;fillColor=#fad7ac;strokeColor=#b46504;" vertex="1" parent="1">
          <mxGeometry x="301.5" y="285.5" width="20" height="20" as="geometry" />
        </mxCell>
        <mxCell id="A1Iu7sWvwkuZ2wNdgPM5-19" style="edgeStyle=none;curved=1;rounded=0;orthogonalLoop=1;jettySize=auto;html=1;exitX=1;exitY=0;exitDx=0;exitDy=0;fontSize=12;startSize=8;endSize=8;endArrow=none;endFill=0;fillColor=#b0e3e6;strokeColor=#0e8088;" edge="1" parent="1" source="A1Iu7sWvwkuZ2wNdgPM5-11" target="A1Iu7sWvwkuZ2wNdgPM5-12">
          <mxGeometry relative="1" as="geometry" />
        </mxCell>
        <mxCell id="A1Iu7sWvwkuZ2wNdgPM5-21" style="edgeStyle=none;curved=1;rounded=0;orthogonalLoop=1;jettySize=auto;html=1;exitX=1;exitY=1;exitDx=0;exitDy=0;entryX=0.5;entryY=0;entryDx=0;entryDy=0;fontSize=12;startSize=8;endSize=8;endArrow=none;endFill=0;fillColor=#b0e3e6;strokeColor=#0e8088;" edge="1" parent="1" source="A1Iu7sWvwkuZ2wNdgPM5-11" target="A1Iu7sWvwkuZ2wNdgPM5-13">
          <mxGeometry relative="1" as="geometry" />
        </mxCell>
        <mxCell id="A1Iu7sWvwkuZ2wNdgPM5-22" style="edgeStyle=none;curved=1;rounded=0;orthogonalLoop=1;jettySize=auto;html=1;entryX=0;entryY=0.5;entryDx=0;entryDy=0;fontSize=12;startSize=8;endSize=8;endArrow=none;endFill=0;fillColor=#b0e3e6;strokeColor=#0e8088;" edge="1" parent="1" source="A1Iu7sWvwkuZ2wNdgPM5-11" target="A1Iu7sWvwkuZ2wNdgPM5-16">
          <mxGeometry relative="1" as="geometry" />
        </mxCell>
        <mxCell id="A1Iu7sWvwkuZ2wNdgPM5-11" value="" style="ellipse;whiteSpace=wrap;html=1;aspect=fixed;fontSize=16;fillColor=#b0e3e6;strokeColor=#0e8088;" vertex="1" parent="1">
          <mxGeometry x="-4" y="29" width="20" height="20" as="geometry" />
        </mxCell>
        <mxCell id="A1Iu7sWvwkuZ2wNdgPM5-12" value="" style="ellipse;whiteSpace=wrap;html=1;aspect=fixed;fontSize=16;fillColor=#b0e3e6;strokeColor=#0e8088;" vertex="1" parent="1">
          <mxGeometry x="30" y="-4" width="20" height="20" as="geometry" />
        </mxCell>
        <mxCell id="A1Iu7sWvwkuZ2wNdgPM5-13" value="" style="ellipse;whiteSpace=wrap;html=1;aspect=fixed;fontSize=16;fillColor=#b0e3e6;strokeColor=#0e8088;" vertex="1" parent="1">
          <mxGeometry x="9" y="79" width="20" height="20" as="geometry" />
        </mxCell>
        <mxCell id="A1Iu7sWvwkuZ2wNdgPM5-14" value="" style="ellipse;whiteSpace=wrap;html=1;aspect=fixed;fontSize=16;fillColor=#b0e3e6;strokeColor=#0e8088;" vertex="1" parent="1">
          <mxGeometry x="-27" y="70" width="20" height="20" as="geometry" />
        </mxCell>
        <mxCell id="A1Iu7sWvwkuZ2wNdgPM5-15" value="" style="ellipse;whiteSpace=wrap;html=1;aspect=fixed;fontSize=16;fillColor=#b0e3e6;strokeColor=#0e8088;" vertex="1" parent="1">
          <mxGeometry x="120" y="46" width="20" height="20" as="geometry" />
        </mxCell>
        <mxCell id="A1Iu7sWvwkuZ2wNdgPM5-16" value="" style="ellipse;whiteSpace=wrap;html=1;aspect=fixed;fontSize=16;fillColor=#b0e3e6;strokeColor=#0e8088;" vertex="1" parent="1">
          <mxGeometry x="70" y="32" width="20" height="20" as="geometry" />
        </mxCell>
        <mxCell id="A1Iu7sWvwkuZ2wNdgPM5-18" style="edgeStyle=none;curved=1;rounded=0;orthogonalLoop=1;jettySize=auto;html=1;exitX=1;exitY=1;exitDx=0;exitDy=0;fontSize=12;startSize=8;endSize=8;endArrow=none;endFill=0;fillColor=#b0e3e6;strokeColor=#0e8088;" edge="1" parent="1" source="A1Iu7sWvwkuZ2wNdgPM5-17" target="A1Iu7sWvwkuZ2wNdgPM5-11">
          <mxGeometry relative="1" as="geometry" />
        </mxCell>
        <mxCell id="A1Iu7sWvwkuZ2wNdgPM5-17" value="" style="ellipse;whiteSpace=wrap;html=1;aspect=fixed;fontSize=16;fillColor=#b0e3e6;strokeColor=#0e8088;" vertex="1" parent="1">
          <mxGeometry x="-55" y="-4" width="20" height="20" as="geometry" />
        </mxCell>
        <mxCell id="A1Iu7sWvwkuZ2wNdgPM5-20" style="edgeStyle=none;curved=1;rounded=0;orthogonalLoop=1;jettySize=auto;html=1;exitX=0;exitY=1;exitDx=0;exitDy=0;entryX=0.672;entryY=0.017;entryDx=0;entryDy=0;entryPerimeter=0;fontSize=12;startSize=8;endSize=8;endArrow=none;endFill=0;fillColor=#b0e3e6;strokeColor=#0e8088;" edge="1" parent="1" source="A1Iu7sWvwkuZ2wNdgPM5-11" target="A1Iu7sWvwkuZ2wNdgPM5-14">
          <mxGeometry relative="1" as="geometry" />
        </mxCell>
        <mxCell id="A1Iu7sWvwkuZ2wNdgPM5-23" style="edgeStyle=none;curved=1;rounded=0;orthogonalLoop=1;jettySize=auto;html=1;exitX=1;exitY=0.5;exitDx=0;exitDy=0;entryX=0.028;entryY=0.306;entryDx=0;entryDy=0;entryPerimeter=0;fontSize=12;startSize=8;endSize=8;fillColor=#b0e3e6;strokeColor=#0e8088;endArrow=none;endFill=0;" edge="1" parent="1" source="A1Iu7sWvwkuZ2wNdgPM5-16" target="A1Iu7sWvwkuZ2wNdgPM5-15">
          <mxGeometry relative="1" as="geometry" />
        </mxCell>
        <mxCell id="A1Iu7sWvwkuZ2wNdgPM5-29" style="edgeStyle=none;curved=1;rounded=0;orthogonalLoop=1;jettySize=auto;html=1;exitX=1;exitY=0.5;exitDx=0;exitDy=0;entryX=0;entryY=0.5;entryDx=0;entryDy=0;fontSize=12;startSize=8;endSize=8;endArrow=none;endFill=0;fillColor=#fad9d5;strokeColor=#ae4132;" edge="1" parent="1" source="A1Iu7sWvwkuZ2wNdgPM5-24" target="A1Iu7sWvwkuZ2wNdgPM5-25">
          <mxGeometry relative="1" as="geometry" />
        </mxCell>
        <mxCell id="A1Iu7sWvwkuZ2wNdgPM5-42" style="edgeStyle=none;curved=1;rounded=0;orthogonalLoop=1;jettySize=auto;html=1;exitX=1;exitY=0;exitDx=0;exitDy=0;entryX=0;entryY=0.5;entryDx=0;entryDy=0;fontSize=12;startSize=8;endSize=8;endArrow=none;endFill=0;fillColor=#d0cee2;strokeColor=#56517e;strokeWidth=2;" edge="1" parent="1" source="A1Iu7sWvwkuZ2wNdgPM5-24" target="A1Iu7sWvwkuZ2wNdgPM5-17">
          <mxGeometry relative="1" as="geometry" />
        </mxCell>
        <mxCell id="A1Iu7sWvwkuZ2wNdgPM5-24" value="" style="ellipse;whiteSpace=wrap;html=1;aspect=fixed;fontSize=16;fillColor=#fad9d5;strokeColor=#ae4132;" vertex="1" parent="1">
          <mxGeometry x="-285.5" y="181.5" width="20" height="20" as="geometry" />
        </mxCell>
        <mxCell id="A1Iu7sWvwkuZ2wNdgPM5-30" style="edgeStyle=none;curved=1;rounded=0;orthogonalLoop=1;jettySize=auto;html=1;exitX=0.5;exitY=1;exitDx=0;exitDy=0;fontSize=12;startSize=8;endSize=8;endArrow=none;endFill=0;fillColor=#fad9d5;strokeColor=#ae4132;" edge="1" parent="1" source="A1Iu7sWvwkuZ2wNdgPM5-25" target="A1Iu7sWvwkuZ2wNdgPM5-27">
          <mxGeometry relative="1" as="geometry" />
        </mxCell>
        <mxCell id="A1Iu7sWvwkuZ2wNdgPM5-25" value="" style="ellipse;whiteSpace=wrap;html=1;aspect=fixed;fontSize=16;fillColor=#fad9d5;strokeColor=#ae4132;" vertex="1" parent="1">
          <mxGeometry x="-229.5" y="181.5" width="20" height="20" as="geometry" />
        </mxCell>
        <mxCell id="A1Iu7sWvwkuZ2wNdgPM5-28" style="edgeStyle=none;curved=1;rounded=0;orthogonalLoop=1;jettySize=auto;html=1;fontSize=12;startSize=8;endSize=8;endArrow=none;endFill=0;fillColor=#fad9d5;strokeColor=#ae4132;" edge="1" parent="1" source="A1Iu7sWvwkuZ2wNdgPM5-26" target="A1Iu7sWvwkuZ2wNdgPM5-24">
          <mxGeometry relative="1" as="geometry" />
        </mxCell>
        <mxCell id="A1Iu7sWvwkuZ2wNdgPM5-26" value="" style="ellipse;whiteSpace=wrap;html=1;aspect=fixed;fontSize=16;fillColor=#fad9d5;strokeColor=#ae4132;" vertex="1" parent="1">
          <mxGeometry x="-285.5" y="233.5" width="20" height="20" as="geometry" />
        </mxCell>
        <mxCell id="A1Iu7sWvwkuZ2wNdgPM5-31" style="edgeStyle=none;curved=1;rounded=0;orthogonalLoop=1;jettySize=auto;html=1;exitX=0;exitY=0.5;exitDx=0;exitDy=0;fontSize=12;startSize=8;endSize=8;endArrow=none;endFill=0;fillColor=#fad9d5;strokeColor=#ae4132;" edge="1" parent="1" source="A1Iu7sWvwkuZ2wNdgPM5-27" target="A1Iu7sWvwkuZ2wNdgPM5-26">
          <mxGeometry relative="1" as="geometry" />
        </mxCell>
        <mxCell id="A1Iu7sWvwkuZ2wNdgPM5-37" style="edgeStyle=none;curved=1;rounded=0;orthogonalLoop=1;jettySize=auto;html=1;exitX=1;exitY=1;exitDx=0;exitDy=0;entryX=0;entryY=0;entryDx=0;entryDy=0;fontSize=12;startSize=8;endSize=8;endArrow=none;endFill=0;fillColor=#d0cee2;strokeColor=#56517e;strokeWidth=2;" edge="1" parent="1" source="A1Iu7sWvwkuZ2wNdgPM5-27" target="A1Iu7sWvwkuZ2wNdgPM5-4">
          <mxGeometry relative="1" as="geometry" />
        </mxCell>
        <mxCell id="A1Iu7sWvwkuZ2wNdgPM5-27" value="" style="ellipse;whiteSpace=wrap;html=1;aspect=fixed;fontSize=16;fillColor=#fad9d5;strokeColor=#ae4132;" vertex="1" parent="1">
          <mxGeometry x="-229.5" y="233.5" width="20" height="20" as="geometry" />
        </mxCell>
        <mxCell id="A1Iu7sWvwkuZ2wNdgPM5-32" value="" style="ellipse;whiteSpace=wrap;html=1;aspect=fixed;fontSize=16;fillColor=none;strokeColor=#56517e;strokeWidth=2;" vertex="1" parent="1">
          <mxGeometry x="-87" y="-80.5" width="245" height="245" as="geometry" />
        </mxCell>
        <mxCell id="A1Iu7sWvwkuZ2wNdgPM5-33" value="" style="ellipse;whiteSpace=wrap;html=1;aspect=fixed;fontSize=16;fillColor=none;strokeColor=#56517e;strokeWidth=2;" vertex="1" parent="1">
          <mxGeometry x="-370" y="96" width="245" height="245" as="geometry" />
        </mxCell>
        <mxCell id="A1Iu7sWvwkuZ2wNdgPM5-34" value="" style="ellipse;whiteSpace=wrap;html=1;aspect=fixed;fontSize=16;fillColor=none;strokeColor=#56517e;strokeWidth=2;" vertex="1" parent="1">
          <mxGeometry x="-109" y="356" width="245" height="245" as="geometry" />
        </mxCell>
        <mxCell id="A1Iu7sWvwkuZ2wNdgPM5-35" value="" style="ellipse;whiteSpace=wrap;html=1;aspect=fixed;fontSize=16;fillColor=none;strokeColor=#56517e;strokeWidth=2;" vertex="1" parent="1">
          <mxGeometry x="189" y="173" width="245" height="245" as="geometry" />
        </mxCell>
      </root>
    </mxGraphModel>
  </diagram>
</mxfile>
